<svg width="905" height="444" viewBox="0 0 905 444" fill="none" xmlns="http://www.w3.org/2000/svg">
<circle cx="79" cy="100" r="55" fill="#F19471"/>
<path d="M8.00014 269.5C14.5 219.5 18 196.5 13.5001 174C54 186 64.5002 224.5 64.0003 243C186 140 164 45 155 0.5C241.5 68.5 241 144.5 158.5 274C92.5003 377.6 84.0002 430.5 88.0002 444C-22.4998 427 -0.128755 332.031 8.00014 269.5Z" fill="#F19471"/>
<path d="M238.245 273.26H276.375C281.645 273.26 286.708 273.777 291.565 274.81C296.525 275.74 300.917 277.393 304.74 279.77C308.563 282.147 311.612 285.35 313.885 289.38C316.158 293.41 317.295 298.525 317.295 304.725C317.295 312.682 315.073 319.347 310.63 324.72C306.29 330.093 300.038 333.348 291.875 334.485L321.015 383H297.455L272.035 336.5H257.775V383H238.245V273.26ZM272.965 319.76C275.755 319.76 278.545 319.657 281.335 319.45C284.125 319.14 286.657 318.52 288.93 317.59C291.307 316.557 293.218 315.058 294.665 313.095C296.112 311.028 296.835 308.187 296.835 304.57C296.835 301.367 296.163 298.783 294.82 296.82C293.477 294.857 291.72 293.41 289.55 292.48C287.38 291.447 284.952 290.775 282.265 290.465C279.682 290.155 277.15 290 274.67 290H257.775V319.76H272.965ZM347.502 352.31C348.122 357.89 350.292 362.23 354.012 365.33C357.732 368.43 362.227 369.98 367.497 369.98C372.147 369.98 376.022 369.05 379.122 367.19C382.325 365.227 385.115 362.798 387.492 359.905L400.822 369.98C396.482 375.353 391.625 379.177 386.252 381.45C380.879 383.723 375.247 384.86 369.357 384.86C363.777 384.86 358.507 383.93 353.547 382.07C348.587 380.21 344.298 377.575 340.682 374.165C337.065 370.755 334.172 366.673 332.002 361.92C329.935 357.063 328.902 351.69 328.902 345.8C328.902 339.91 329.935 334.588 332.002 329.835C334.172 324.978 337.065 320.845 340.682 317.435C344.298 314.025 348.587 311.39 353.547 309.53C358.507 307.67 363.777 306.74 369.357 306.74C374.524 306.74 379.225 307.67 383.462 309.53C387.802 311.287 391.47 313.87 394.467 317.28C397.567 320.69 399.944 324.927 401.597 329.99C403.354 334.95 404.232 340.685 404.232 347.195V352.31H347.502ZM385.632 338.36C385.529 332.883 383.824 328.595 380.517 325.495C377.21 322.292 372.612 320.69 366.722 320.69C361.142 320.69 356.699 322.292 353.392 325.495C350.189 328.698 348.225 332.987 347.502 338.36H385.632ZM470.916 330.92C468.746 328.647 466.472 326.838 464.096 325.495C461.719 324.152 459.291 323.48 456.811 323.48C453.401 323.48 450.352 324.1 447.666 325.34C444.979 326.58 442.654 328.233 440.691 330.3C438.831 332.367 437.384 334.743 436.351 337.43C435.421 340.117 434.956 342.907 434.956 345.8C434.956 348.693 435.421 351.483 436.351 354.17C437.384 356.857 438.831 359.233 440.691 361.3C442.654 363.367 444.979 365.02 447.666 366.26C450.352 367.5 453.401 368.12 456.811 368.12C459.704 368.12 462.391 367.552 464.871 366.415C467.351 365.175 469.469 363.418 471.226 361.145L483.626 374.475C481.766 376.335 479.596 377.937 477.116 379.28C474.739 380.623 472.311 381.708 469.831 382.535C467.351 383.362 464.974 383.93 462.701 384.24C460.427 384.653 458.464 384.86 456.811 384.86C451.231 384.86 445.961 383.93 441.001 382.07C436.041 380.21 431.752 377.575 428.136 374.165C424.519 370.755 421.626 366.673 419.456 361.92C417.389 357.063 416.356 351.69 416.356 345.8C416.356 339.91 417.389 334.588 419.456 329.835C421.626 324.978 424.519 320.845 428.136 317.435C431.752 314.025 436.041 311.39 441.001 309.53C445.961 307.67 451.231 306.74 456.811 306.74C461.564 306.74 466.317 307.67 471.071 309.53C475.927 311.287 480.164 314.128 483.781 318.055L470.916 330.92ZM489.581 345.8C489.581 339.91 490.614 334.588 492.681 329.835C494.851 324.978 497.744 320.845 501.361 317.435C504.978 314.025 509.266 311.39 514.226 309.53C519.186 307.67 524.456 306.74 530.036 306.74C535.616 306.74 540.886 307.67 545.846 309.53C550.806 311.39 555.094 314.025 558.711 317.435C562.328 320.845 565.169 324.978 567.236 329.835C569.406 334.588 570.491 339.91 570.491 345.8C570.491 351.69 569.406 357.063 567.236 361.92C565.169 366.673 562.328 370.755 558.711 374.165C555.094 377.575 550.806 380.21 545.846 382.07C540.886 383.93 535.616 384.86 530.036 384.86C524.456 384.86 519.186 383.93 514.226 382.07C509.266 380.21 504.978 377.575 501.361 374.165C497.744 370.755 494.851 366.673 492.681 361.92C490.614 357.063 489.581 351.69 489.581 345.8ZM508.181 345.8C508.181 348.693 508.646 351.483 509.576 354.17C510.609 356.857 512.056 359.233 513.916 361.3C515.879 363.367 518.204 365.02 520.891 366.26C523.578 367.5 526.626 368.12 530.036 368.12C533.446 368.12 536.494 367.5 539.181 366.26C541.868 365.02 544.141 363.367 546.001 361.3C547.964 359.233 549.411 356.857 550.341 354.17C551.374 351.483 551.891 348.693 551.891 345.8C551.891 342.907 551.374 340.117 550.341 337.43C549.411 334.743 547.964 332.367 546.001 330.3C544.141 328.233 541.868 326.58 539.181 325.34C536.494 324.1 533.446 323.48 530.036 323.48C526.626 323.48 523.578 324.1 520.891 325.34C518.204 326.58 515.879 328.233 513.916 330.3C512.056 332.367 510.609 334.743 509.576 337.43C508.646 340.117 508.181 342.907 508.181 345.8ZM576.281 308.6H596.586L616.426 360.68H616.736L636.731 308.6H655.796L626.501 383H606.661L576.281 308.6ZM680.062 352.31C680.682 357.89 682.852 362.23 686.572 365.33C690.292 368.43 694.787 369.98 700.057 369.98C704.707 369.98 708.582 369.05 711.682 367.19C714.885 365.227 717.675 362.798 720.052 359.905L733.382 369.98C729.042 375.353 724.185 379.177 718.812 381.45C713.438 383.723 707.807 384.86 701.917 384.86C696.337 384.86 691.067 383.93 686.107 382.07C681.147 380.21 676.858 377.575 673.242 374.165C669.625 370.755 666.732 366.673 664.562 361.92C662.495 357.063 661.462 351.69 661.462 345.8C661.462 339.91 662.495 334.588 664.562 329.835C666.732 324.978 669.625 320.845 673.242 317.435C676.858 314.025 681.147 311.39 686.107 309.53C691.067 307.67 696.337 306.74 701.917 306.74C707.083 306.74 711.785 307.67 716.022 309.53C720.362 311.287 724.03 313.87 727.027 317.28C730.127 320.69 732.503 324.927 734.157 329.99C735.913 334.95 736.792 340.685 736.792 347.195V352.31H680.062ZM718.192 338.36C718.088 332.883 716.383 328.595 713.077 325.495C709.77 322.292 705.172 320.69 699.282 320.69C693.702 320.69 689.258 322.292 685.952 325.495C682.748 328.698 680.785 332.987 680.062 338.36H718.192ZM752.636 308.6H771.236V320.38H771.546C773.612 316.04 776.557 312.682 780.381 310.305C784.204 307.928 788.596 306.74 793.556 306.74C794.692 306.74 795.777 306.843 796.811 307.05C797.947 307.257 799.084 307.515 800.221 307.825V325.805C798.671 325.392 797.121 325.082 795.571 324.875C794.124 324.565 792.677 324.41 791.231 324.41C786.891 324.41 783.377 325.237 780.691 326.89C778.107 328.44 776.092 330.248 774.646 332.315C773.302 334.382 772.372 336.448 771.856 338.515C771.442 340.582 771.236 342.132 771.236 343.165V383H752.636V308.6ZM801.255 308.6H821.715L842.485 360.215H842.795L861.395 308.6H880.77L845.585 398.965C844.241 402.478 842.743 405.527 841.09 408.11C839.54 410.797 837.68 413.018 835.51 414.775C833.34 416.635 830.756 417.978 827.76 418.805C824.866 419.735 821.353 420.2 817.22 420.2C812.363 420.2 807.61 419.58 802.96 418.34L805.285 401.6C806.731 402.117 808.23 402.53 809.78 402.84C811.433 403.253 813.086 403.46 814.74 403.46C817.013 403.46 818.925 403.253 820.475 402.84C822.025 402.427 823.316 401.755 824.35 400.825C825.486 399.998 826.416 398.862 827.14 397.415C827.863 396.072 828.638 394.418 829.465 392.455L833.03 383.62L801.255 308.6Z" fill="#F19471"/>
<path d="M310.75 170.7C306.85 166.5 303.05 163.7 299.35 162.3C295.75 160.9 292.1 160.2 288.4 160.2C282.9 160.2 277.9 161.2 273.4 163.2C269 165.1 265.2 167.8 262 171.3C258.8 174.7 256.3 178.7 254.5 183.3C252.8 187.9 251.95 192.85 251.95 198.15C251.95 203.85 252.8 209.1 254.5 213.9C256.3 218.7 258.8 222.85 262 226.35C265.2 229.85 269 232.6 273.4 234.6C277.9 236.6 282.9 237.6 288.4 237.6C292.7 237.6 296.85 236.6 300.85 234.6C304.95 232.5 308.75 229.2 312.25 224.7L327.85 235.8C323.05 242.4 317.2 247.2 310.3 250.2C303.4 253.2 296.05 254.7 288.25 254.7C280.05 254.7 272.5 253.4 265.6 250.8C258.8 248.1 252.9 244.35 247.9 239.55C243 234.65 239.15 228.8 236.35 222C233.55 215.2 232.15 207.65 232.15 199.35C232.15 190.85 233.55 183.15 236.35 176.25C239.15 169.25 243 163.3 247.9 158.4C252.9 153.5 258.8 149.75 265.6 147.15C272.5 144.45 280.05 143.1 288.25 143.1C295.45 143.1 302.1 144.4 308.2 147C314.4 149.5 320.15 153.8 325.45 159.9L310.75 170.7ZM327.786 216C327.786 210.3 328.786 205.15 330.786 200.55C332.886 195.85 335.686 191.85 339.186 188.55C342.686 185.25 346.836 182.7 351.636 180.9C356.436 179.1 361.536 178.2 366.936 178.2C372.336 178.2 377.436 179.1 382.236 180.9C387.036 182.7 391.186 185.25 394.686 188.55C398.186 191.85 400.936 195.85 402.936 200.55C405.036 205.15 406.086 210.3 406.086 216C406.086 221.7 405.036 226.9 402.936 231.6C400.936 236.2 398.186 240.15 394.686 243.45C391.186 246.75 387.036 249.3 382.236 251.1C377.436 252.9 372.336 253.8 366.936 253.8C361.536 253.8 356.436 252.9 351.636 251.1C346.836 249.3 342.686 246.75 339.186 243.45C335.686 240.15 332.886 236.2 330.786 231.6C328.786 226.9 327.786 221.7 327.786 216ZM345.786 216C345.786 218.8 346.236 221.5 347.136 224.1C348.136 226.7 349.536 229 351.336 231C353.236 233 355.486 234.6 358.086 235.8C360.686 237 363.636 237.6 366.936 237.6C370.236 237.6 373.186 237 375.786 235.8C378.386 234.6 380.586 233 382.386 231C384.286 229 385.686 226.7 386.586 224.1C387.586 221.5 388.086 218.8 388.086 216C388.086 213.2 387.586 210.5 386.586 207.9C385.686 205.3 384.286 203 382.386 201C380.586 199 378.386 197.4 375.786 196.2C373.186 195 370.236 194.4 366.936 194.4C363.636 194.4 360.686 195 358.086 196.2C355.486 197.4 353.236 199 351.336 201C349.536 203 348.136 205.3 347.136 207.9C346.236 210.5 345.786 213.2 345.786 216ZM453.838 199.95C450.338 195.05 445.638 192.6 439.738 192.6C437.338 192.6 434.988 193.2 432.688 194.4C430.388 195.6 429.238 197.55 429.238 200.25C429.238 202.45 430.188 204.05 432.088 205.05C433.988 206.05 436.388 206.9 439.288 207.6C442.188 208.3 445.288 209.05 448.588 209.85C451.988 210.55 455.138 211.7 458.038 213.3C460.938 214.8 463.338 216.9 465.238 219.6C467.138 222.3 468.088 226 468.088 230.7C468.088 235 467.138 238.65 465.238 241.65C463.438 244.55 461.038 246.9 458.038 248.7C455.138 250.5 451.838 251.8 448.138 252.6C444.438 253.4 440.738 253.8 437.038 253.8C431.438 253.8 426.288 253 421.588 251.4C416.888 249.8 412.688 246.9 408.988 242.7L420.988 231.45C423.288 234.05 425.738 236.2 428.338 237.9C431.038 239.5 434.288 240.3 438.088 240.3C439.388 240.3 440.738 240.15 442.138 239.85C443.538 239.55 444.838 239.05 446.038 238.35C447.238 237.65 448.188 236.8 448.888 235.8C449.688 234.7 450.088 233.45 450.088 232.05C450.088 229.55 449.138 227.7 447.238 226.5C445.338 225.3 442.938 224.35 440.038 223.65C437.138 222.85 433.988 222.15 430.588 221.55C427.288 220.85 424.188 219.8 421.288 218.4C418.388 216.9 415.988 214.85 414.088 212.25C412.188 209.65 411.238 206.05 411.238 201.45C411.238 197.45 412.038 194 413.638 191.1C415.338 188.1 417.538 185.65 420.238 183.75C422.938 181.85 426.038 180.45 429.538 179.55C433.038 178.65 436.588 178.2 440.188 178.2C444.988 178.2 449.738 179.05 454.438 180.75C459.138 182.35 462.938 185.15 465.838 189.15L453.838 199.95ZM466.189 195.3V180H481.039V159.15H499.039V180H518.839V195.3H499.039V226.8C499.039 230.4 499.689 233.25 500.989 235.35C502.389 237.45 505.089 238.5 509.089 238.5C510.689 238.5 512.439 238.35 514.339 238.05C516.239 237.65 517.739 237.05 518.839 236.25V251.4C516.939 252.3 514.589 252.9 511.789 253.2C509.089 253.6 506.689 253.8 504.589 253.8C499.789 253.8 495.839 253.25 492.739 252.15C489.739 251.15 487.339 249.6 485.539 247.5C483.839 245.3 482.639 242.6 481.939 239.4C481.339 236.2 481.039 232.5 481.039 228.3V195.3H466.189ZM570.389 242.1H569.939C567.339 246.2 564.039 249.2 560.039 251.1C556.039 252.9 551.639 253.8 546.839 253.8C543.539 253.8 540.289 253.35 537.089 252.45C533.989 251.55 531.189 250.2 528.689 248.4C526.289 246.6 524.339 244.35 522.839 241.65C521.339 238.95 520.589 235.8 520.589 232.2C520.589 228.3 521.289 225 522.689 222.3C524.089 219.5 525.939 217.2 528.239 215.4C530.639 213.5 533.389 212 536.489 210.9C539.589 209.8 542.789 209 546.089 208.5C549.489 207.9 552.889 207.55 556.289 207.45C559.689 207.25 562.889 207.15 565.889 207.15H570.389V205.2C570.389 200.7 568.839 197.35 565.739 195.15C562.639 192.85 558.689 191.7 553.889 191.7C550.089 191.7 546.539 192.4 543.239 193.8C539.939 195.1 537.089 196.9 534.689 199.2L525.239 189.75C529.239 185.65 533.889 182.7 539.189 180.9C544.589 179.1 550.139 178.2 555.839 178.2C560.939 178.2 565.239 178.8 568.739 180C572.239 181.1 575.139 182.55 577.439 184.35C579.739 186.15 581.489 188.25 582.689 190.65C583.989 192.95 584.889 195.3 585.389 197.7C585.989 200.1 586.339 202.45 586.439 204.75C586.539 206.95 586.589 208.9 586.589 210.6V252H570.389V242.1ZM569.339 219.75H565.589C563.089 219.75 560.289 219.85 557.189 220.05C554.089 220.25 551.139 220.75 548.339 221.55C545.639 222.25 543.339 223.35 541.439 224.85C539.539 226.25 538.589 228.25 538.589 230.85C538.589 232.55 538.939 234 539.639 235.2C540.439 236.3 541.439 237.25 542.639 238.05C543.839 238.85 545.189 239.45 546.689 239.85C548.189 240.15 549.689 240.3 551.189 240.3C557.389 240.3 561.939 238.85 564.839 235.95C567.839 232.95 569.339 228.9 569.339 223.8V219.75ZM636.991 145.8H673.891C678.991 145.8 683.891 146.3 688.591 147.3C693.391 148.2 697.641 149.8 701.341 152.1C705.041 154.4 707.991 157.5 710.191 161.4C712.391 165.3 713.491 170.25 713.491 176.25C713.491 183.95 711.341 190.4 707.041 195.6C702.841 200.8 696.791 203.95 688.891 205.05L717.091 252H694.291L669.691 207H655.891V252H636.991V145.8ZM670.591 190.8C673.291 190.8 675.991 190.7 678.691 190.5C681.391 190.2 683.841 189.6 686.041 188.7C688.341 187.7 690.191 186.25 691.591 184.35C692.991 182.35 693.691 179.6 693.691 176.1C693.691 173 693.041 170.5 691.741 168.6C690.441 166.7 688.741 165.3 686.641 164.4C684.541 163.4 682.191 162.75 679.591 162.45C677.091 162.15 674.641 162 672.241 162H655.891V190.8H670.591ZM722.623 180H740.623V252H722.623V180ZM720.073 155.55C720.073 152.65 721.123 150.15 723.223 148.05C725.423 145.85 728.173 144.75 731.473 144.75C734.773 144.75 737.523 145.8 739.723 147.9C742.023 149.9 743.173 152.45 743.173 155.55C743.173 158.65 742.023 161.25 739.723 163.35C737.523 165.35 734.773 166.35 731.473 166.35C728.173 166.35 725.423 165.3 723.223 163.2C721.123 161 720.073 158.45 720.073 155.55ZM802.988 201.6C800.888 199.4 798.688 197.65 796.388 196.35C794.088 195.05 791.738 194.4 789.338 194.4C786.038 194.4 783.088 195 780.488 196.2C777.888 197.4 775.638 199 773.738 201C771.938 203 770.538 205.3 769.538 207.9C768.638 210.5 768.188 213.2 768.188 216C768.188 218.8 768.638 221.5 769.538 224.1C770.538 226.7 771.938 229 773.738 231C775.638 233 777.888 234.6 780.488 235.8C783.088 237 786.038 237.6 789.338 237.6C792.138 237.6 794.738 237.05 797.138 235.95C799.538 234.75 801.588 233.05 803.288 230.85L815.288 243.75C813.488 245.55 811.388 247.1 808.988 248.4C806.688 249.7 804.338 250.75 801.938 251.55C799.538 252.35 797.238 252.9 795.038 253.2C792.838 253.6 790.938 253.8 789.338 253.8C783.938 253.8 778.838 252.9 774.038 251.1C769.238 249.3 765.088 246.75 761.588 243.45C758.088 240.15 755.288 236.2 753.188 231.6C751.188 226.9 750.188 221.7 750.188 216C750.188 210.3 751.188 205.15 753.188 200.55C755.288 195.85 758.088 191.85 761.588 188.55C765.088 185.25 769.238 182.7 774.038 180.9C778.838 179.1 783.938 178.2 789.338 178.2C793.938 178.2 798.538 179.1 803.138 180.9C807.838 182.6 811.938 185.35 815.438 189.15L802.988 201.6ZM863.651 242.1H863.201C860.601 246.2 857.301 249.2 853.301 251.1C849.301 252.9 844.901 253.8 840.101 253.8C836.801 253.8 833.551 253.35 830.351 252.45C827.251 251.55 824.451 250.2 821.951 248.4C819.551 246.6 817.601 244.35 816.101 241.65C814.601 238.95 813.851 235.8 813.851 232.2C813.851 228.3 814.551 225 815.951 222.3C817.351 219.5 819.201 217.2 821.501 215.4C823.901 213.5 826.651 212 829.751 210.9C832.851 209.8 836.051 209 839.351 208.5C842.751 207.9 846.151 207.55 849.551 207.45C852.951 207.25 856.151 207.15 859.151 207.15H863.651V205.2C863.651 200.7 862.101 197.35 859.001 195.15C855.901 192.85 851.951 191.7 847.151 191.7C843.351 191.7 839.801 192.4 836.501 193.8C833.201 195.1 830.351 196.9 827.951 199.2L818.501 189.75C822.501 185.65 827.151 182.7 832.451 180.9C837.851 179.1 843.401 178.2 849.101 178.2C854.201 178.2 858.501 178.8 862.001 180C865.501 181.1 868.401 182.55 870.701 184.35C873.001 186.15 874.751 188.25 875.951 190.65C877.251 192.95 878.151 195.3 878.651 197.7C879.251 200.1 879.601 202.45 879.701 204.75C879.801 206.95 879.851 208.9 879.851 210.6V252H863.651V242.1ZM862.601 219.75H858.851C856.351 219.75 853.551 219.85 850.451 220.05C847.351 220.25 844.401 220.75 841.601 221.55C838.901 222.25 836.601 223.35 834.701 224.85C832.801 226.25 831.851 228.25 831.851 230.85C831.851 232.55 832.201 234 832.901 235.2C833.701 236.3 834.701 237.25 835.901 238.05C837.101 238.85 838.451 239.45 839.951 239.85C841.451 240.15 842.951 240.3 844.451 240.3C850.651 240.3 855.201 238.85 858.101 235.95C861.101 232.95 862.601 228.9 862.601 223.8V219.75Z" fill="white"/>
</svg>
